<?xml version="1.0" encoding="UTF-8"?>
<svg id="Layer_2" data-name="Layer 2" xmlns="http://www.w3.org/2000/svg" viewBox="0 0 546.99 398.09">
  <defs>
    <style>
      .cls-1 {
        fill: #fff;
      }
    </style>
  </defs>
  <g id="Layer_1-2" data-name="Layer 1">
    <g>
      <path class="cls-1" d="M86.05,397.68c-.3-.17-.47-.43-.38-.52.1-.1-.25-.15-.77-.1-.88.08-1.05-.03-1.52-.7-.43-.65-.63-.75-1.1-.57-.32.13-.75.13-1.02-.03-.32-.17-.52-.17-.63,0-.1.17-.32.17-.65,0-.28-.15-.57-.2-.7-.15-.13.08-.63-.03-1.13-.22-.5-.2-.9-.3-.9-.22,0,.1-.15.03-.32-.13-.2-.15-.43-.2-.5-.13-.08.1-.35.08-.6-.03-.25-.13-.63-.22-.82-.22-.65-.05-2.88-.73-3.17-.95-.17-.15-.4-.17-.55-.1-.13.1-.73,0-1.33-.2s-1.52-.45-2.08-.52c-.55-.1-1.23-.32-1.5-.47-.28-.17-1.15-.45-1.95-.65-.8-.17-1.5-.43-1.58-.55-.08-.1-.35-.2-.65-.2-.28,0-1.4-.4-2.53-.88-1.1-.47-2.13-.88-2.25-.88-.45,0-7.85-3.38-8.18-3.72-.08-.1-.88-.52-1.8-.98-.95-.47-1.7-.95-1.7-1.08,0-.15-.1-.2-.22-.1-.13.08-.4-.05-.63-.25-.2-.22-.77-.55-1.25-.75-.47-.2-.95-.5-1.02-.63-.1-.15-.45-.38-.8-.52-.77-.3-5.07-3.47-5.07-3.78,0-.1-.17-.2-.38-.2-.17,0-.45-.15-.55-.32s-.65-.6-1.2-.93c-1.2-.7-2.65-2.13-2.42-2.4.1-.1.05-.1-.13,0-.28.15-.8-.22-3.25-2.47-1.13-1.02-1.58-1.5-4.32-4.35-1.63-1.7-1.9-2.03-2.4-2.92-.15-.25-.5-.57-.8-.73-.3-.13-.63-.45-.7-.68-.08-.25-.25-.45-.38-.45s-.22-.15-.22-.35-.32-.68-.75-1.08c-.4-.38-.75-.82-.75-1,0-.17-.35-.7-.75-1.15-.43-.47-.75-.98-.75-1.08,0-.13-.28-.52-.63-.9s-.63-.75-.63-.82c0-.1-.15-.32-.32-.5-.77-.88-1.27-1.7-2.13-3.38-.38-.77-.93-1.73-1.23-2.13-1.1-1.58-4.18-8.27-3.95-8.65.08-.1.03-.25-.13-.35-.38-.22-1-1.83-1-2.53,0-.32-.1-.6-.22-.6-.13,0-.43-.65-.65-1.42-.2-.8-.65-2.17-.98-3.08-1-2.78-2.1-6.55-2.4-8.25-.15-.9-.32-1.83-.38-2.05-.05-.25.03-.45.15-.45.35,0,.25-.68-.13-.82-.32-.13-.57-1.4-.8-4.15-.08-.73-.45-2.13-.85-3.08q-.75-1.75-.7-116.38c.05-91.05.15-114.63.38-114.78.3-.2.9-2.55.63-2.55-.05,0,.03-.15.17-.35.15-.2.28-.45.22-.55-.1-.4.63-4.13.82-4.25.13-.08.22-.5.22-.93,0-1.5,1.3-7.03,1.77-7.55.13-.13.22-.43.22-.65,0-.25.13-.75.3-1.15.15-.38.25-.85.22-1-.03-.17.1-.32.3-.32.45,0,.98-1.8.77-2.6-.08-.32-.03-.68.13-.75.15-.1.28-.38.28-.63,0-.45.3-1.15.88-2.03.13-.2.28-.57.3-.85.05-.25.22-.82.43-1.25.17-.43.52-1.25.77-1.83.25-.6.55-1.08.68-1.08s.17-.1.1-.22c-.17-.28.57-1.77.88-1.77.15,0,.2-.1.13-.22-.2-.32.43-1.52.82-1.52.17,0,.28-.15.2-.35-.2-.52,2.92-5.97,4.18-7.32.95-1,1.13-1.27.95-1.42-.08-.1.1-.22.4-.32.3-.08.55-.25.55-.38s-.15-.15-.3-.05c-.2.1-.25.08-.13-.05.13-.13.3-.22.38-.25.47-.08,1.8-.68,1.8-.82,0-.32,2.7-3.78,3.8-4.85,1.33-1.27,2.03-2.35,1.35-2.1-.2.08-.45.03-.55-.1-.17-.32,1.35-1.98,1.83-1.98.17,0,.32-.1.32-.22,0-.57,5.4-5.63,8.25-7.72,1.73-1.27,3.4-2.53,3.75-2.8.35-.28.75-.5.93-.5.15,0,.32-.1.38-.2.1-.3,2.38-1.8,2.67-1.8.15,0,.28-.1.28-.22,0-.13.25-.32.55-.43.32-.1.57-.13.57-.1,0,.05.3-.17.65-.52,1.27-1.17,11.4-6.07,15.73-7.6,1.42-.5,4.1-1.33,7-2.2.47-.13,1.1-.32,1.38-.43.28-.1,1-.32,1.63-.5.63-.17,1.25-.4,1.4-.52.17-.13,1.13-.4,2.13-.6,1.02-.2,2.38-.47,3.03-.6.68-.15,1.38-.2,1.58-.13.2.1.38.05.38-.1,0-.13.68-.6,1.52-1.02,1.27-.65,1.8-.77,3.3-.77.98,0,2.15.13,2.6.3.68.25.95.25,1.33,0,.4-.22,41.25-.3,189.43-.3q188.95.03,189.93.88c.52.47,1.1.88,1.3.88s.35.1.35.25c0,.13.17.17.4.08.43-.15,3.53.6,4.03.98.17.13.52.17.77.08.28-.08.65,0,.82.17.2.17.85.35,1.48.38s1.4.15,1.75.28.7.25.82.28c.1,0,.57.17,1.05.38.95.4.93.4,1.48.4.2,0,.52.15.7.32.17.17.6.32.95.35.65.03,1,.1,1.88.43,1.83.7,2.4.9,2.5.9.4.03,3.67,1.27,4,1.52.15.1.98.45,1.88.8,1.95.75,7,3.33,10.13,5.18,4.97,2.95,10.65,7.07,14.5,10.5,2.55,2.28,7.82,7.85,8.18,8.65.15.32.35.6.45.6.28,0,2.42,2.85,2.63,3.47.08.28.25.52.35.52.22,0,1.7,2.15,2.42,3.5.28.47.63.98.8,1.08.15.1.3.35.3.52s.28.65.63,1.05.63.93.63,1.17c0,.22.13.43.28.43.13,0,.4.38.6.85s.47.93.63,1.02c.13.08.25.38.25.63s.1.5.2.55c.25.1,1.8,3.28,1.8,3.67,0,.15.13.28.25.28.15,0,.25.13.25.3,0,.3.73,1.98,1.52,3.47.25.5.47,1.15.47,1.45s.17.8.38,1.13c.22.32.55,1.13.73,1.8.2.68.47,1.58.6,1.98.98,2.72,2.63,9.55,2.6,10.65-.03.63.08.98.35,1.08.25.1.38.4.32.82-.03.4.05,1.05.17,1.45.1.43.17.93.15,1.17-.05.22.05.47.2.57.13.08.25.32.25.52s.2.65.43,1.02c.25.35.47,1.1.52,1.67s.15,52.22.2,114.78c.08,81.45.05,114.2-.15,115.35-.15.9-.4,1.85-.55,2.13-.17.3-.28.9-.22,1.35.03.45-.05.95-.17,1.13-.25.3-.4,1.3-.7,4.3-.08.82-.22,1.73-.35,2-.13.28-.28.77-.32,1.13-.05.35-.17.8-.25,1-.1.2-.22.73-.25,1.13-.05.43-.22,1-.4,1.33-.15.3-.2.55-.1.55s.08.1-.1.2c-.15.1-.32.52-.4.93-.08.43-.25,1.05-.38,1.4-.15.38-.2.75-.13.82.1.08.05.15-.08.15-.15,0-.4.6-.57,1.33-.32,1.25-.68,2.38-1.9,5.93-.75,2.22-2.4,5.82-2.8,6.15-.17.15-.25.32-.17.43.2.2-.6,1.67-.93,1.67-.15,0-.17.13-.1.25.08.13.03.25-.13.25-.15,0-.22.1-.13.22.08.13-.05.4-.25.6-.2.22-.38.52-.38.68,0,.28-1.98,4.03-2.25,4.25-.08.08-.4.57-.73,1.13-.32.55-.73,1.1-.93,1.2-.2.13-.3.32-.2.45.13.22-.32.82-1.55,2.08-.3.28-.6.77-.7,1.1-.1.3-.28.5-.4.43-.1-.08-.32.17-.45.57-.15.38-.55.98-.9,1.35-.35.38-.65.75-.65.82,0,.28-.7.88-1,.88-.15,0-.2.1-.13.25.08.15-.03.17-.22.1-.28-.1-.4,0-.4.35,0,.57-.57,1.13-.88.85-.13-.1-.13-.05-.05.1.22.4-4.55,5.4-6.1,6.38-.68.45-1.23.93-1.23,1.1,0,.47-7.25,6.22-10.63,8.4-2.58,1.67-4.35,2.72-4.6,2.72-.13,0-.4.17-.6.35-.32.35-1.23.9-2.7,1.67-1.27.65-1.5.73-1.73.6-.15-.1-.25-.05-.25.05,0,.2-2.15,1.35-3.38,1.83-.28.13-1.02.43-1.67.73s-1.35.52-1.55.52-.43.1-.5.2c-.08.13-.82.43-1.7.68s-1.67.55-1.83.63c-.3.22-2.1.82-2.63.88-.2.03-.55.13-.75.2-.2.08-1.05.32-1.88.55-.82.22-1.83.5-2.25.63-.4.13-1.02.28-1.38.35-.35.08-1.02.25-1.5.4-.47.17-1.33.4-1.88.5-.55.13-1.77.4-2.75.6-.95.22-2.15.45-2.63.5-2.83.32-3.47.47-3.55.88-.05.3-.4.4-1.27.43-.85.03-1.38.2-1.77.57-.5.47-.82.52-3.92.52-2.38,0-3.47-.1-3.67-.3-.47-.47-359.13-.47-359.58,0-.45.43-6.88.4-7.68-.03v-.07ZM444.13,383.61c7.57-.32,10.75-.55,12.75-.95.43-.08,2.33-.43,4.25-.8,4.97-.93,12.85-3.4,18.63-5.85,1.85-.8,3.65-1.52,4-1.63.82-.25,4.53-2.1,7.78-3.9,2.72-1.5,5.53-3.5,9.25-6.63,1.15-.95,2.38-1.92,2.67-2.15.32-.22,2.13-1.85,3.97-3.63,1.85-1.75,3.7-3.35,4.07-3.55.38-.17.85-.63,1.08-1,.2-.35.88-1.27,1.48-2,1.38-1.73,4.68-6.82,8.25-12.77,1.1-1.83,2.42-4.6,3.4-7.13.28-.68,1.05-2.55,1.75-4.13.68-1.58,1.88-4.82,2.67-7.2,1.15-3.45,1.45-4.7,1.48-6.03.03-1.3.1-1.7.38-1.67.9.05.9-.3.8-35.97-.15-44.8-.15-123.55-.03-157.38.13-29.92,0-36.7-.63-37.33-.15-.17-.43-1.02-.6-1.92-.15-.9-.4-2.17-.52-2.83-.35-1.85-3.4-10.65-5.03-14.52-.8-1.9-2.45-5.15-3.65-7.25-1.98-3.45-7.07-11.32-7.88-12.18-.17-.2-.85-.98-1.48-1.73-2.03-2.4-7.45-7.7-9.3-9.1-1-.75-2.2-1.73-2.67-2.15-1.42-1.3-5.25-4.1-7-5.13-4.05-2.35-14.65-7.13-19.92-8.98-3.3-1.15-6.47-2.1-8.7-2.63-1.23-.28-3.47-.8-5-1.15-1.7-.43-4.25-.77-6.75-.95-4.95-.38-32.38-.3-51.25.13-20.58.47-243.27.45-255.63-.03-12.23-.47-50.45-.52-55.47-.08-1.98.17-3.72.4-3.88.52-.15.13-.73.28-1.27.38-3.13.52-10.23,2.4-12.5,3.28-.82.32-2.58,1-3.88,1.5s-4.8,2.08-7.75,3.5-6.1,2.92-7,3.35c-2,.93-4.63,2.55-5.63,3.5-.4.38-2.33,1.95-4.25,3.5-4,3.22-6.9,5.95-10.43,9.88-2.2,2.45-5.2,6.53-5.2,7.05,0,.1-.5.93-1.1,1.83-.6.93-1.4,2.22-1.77,2.9-.38.7-1.05,1.88-1.52,2.65-3.67,6.1-7.63,17.05-9.5,26.35-.22,1.1-.5,2.13-.6,2.25-.28.35-.75,4.93-.6,5.82.08.43,0,.82-.15.93-.13.08-.25.03-.25-.15,0-.22-.08-.25-.25-.08-.15.15-.32,4.9-.43,11.85-.22,13.6-.25,10.5.15,40,.25,17.63.28,36.78.13,77.88-.32,80.93-.32,85.47.2,86.03.25.3.5,1.25.65,2.6.45,3.88,3.7,15.63,5.1,18.35.28.55.73,1.63.98,2.42.75,2.33,3.8,8.15,5.82,11.23,1.05,1.58,1.98,3.15,2.08,3.5.08.35.52,1.05.98,1.6.45.52.9,1.27.98,1.63.08.38.7,1.27,1.38,1.98.68.73,1.48,1.75,1.73,2.28.55,1.05,1.2,1.67,3.25,3.03.7.47,2.55,2.2,4.1,3.85,1.55,1.63,3.92,3.88,5.3,5.03,1.38,1.13,2.85,2.42,3.25,2.88,1.33,1.4,4.97,3.65,7.75,4.75.95.4,3.33,1.48,5.25,2.38,5.35,2.58,10.73,4.75,14.13,5.72.75.2,2.5.73,3.88,1.13s3.17.85,4,1c.82.17,2.22.45,3.13.65.9.2,2.13.43,2.75.5.63.1,2.08.4,3.25.68,1.77.43,2.67.5,5.5.4,1.85-.05,4.45-.03,5.75.05,1.3.1,76.35.17,166.75.2,138.4,0,165.68-.05,172.63-.35h-.04Z"/>
      <path class="cls-1" d="M270.13,328.64c-.13-.05-2.22-.35-4.63-.63-2.4-.3-5.1-.65-6-.77-.9-.15-2.4-.2-3.33-.13-1.27.13-1.65.08-1.52-.13.13-.2.08-.22-.13-.13-.17.13-.5.03-.73-.17-.22-.22-.52-.4-.68-.43-.13-.05-.5-.15-.8-.28-.32-.13-1.23-.38-2-.6-1.23-.3-4.65-1.45-10.82-3.58-1.75-.63-14.9-7.32-17-8.68-5.68-3.65-6.05-3.92-11-7.93-4.6-3.7-7.28-6.45-11.85-12.15-4.32-5.38-6.85-9.05-9.73-14.05-2.78-4.88-6.1-13.18-7.68-19.13-.25-.95-.52-1.92-.6-2.13-.08-.2-.32-1.1-.52-2s-.47-2.08-.63-2.63c-.15-.55-.35-1.73-.47-2.63-.13-.9-.38-2.53-.52-3.63-.2-1.35-.25-4.82-.17-10.63.15-12.15.7-15.82,3.7-25,1.45-4.35,4.2-11.43,5.28-13.5.38-.75.7-1.5.7-1.67,0-.15.3-.6.65-1,.57-.63.6-.7.22-.98s-.38-.35.03-.98c.22-.35.57-.6.75-.52.2.08.35.03.35-.08,0-.13-.13-.28-.28-.32-.2-.08-.15-.35.13-.93.52-1,12.2-20.42,14.45-24.02.9-1.45,4.9-8.02,8.85-14.63,3.97-6.6,8.18-13.5,9.32-15.38,1.15-1.85,5.5-9,9.65-15.88s8.27-13.65,9.15-15.07,4.03-6.6,7-11.5,6.15-10.1,7.07-11.55c.93-1.45,1.8-2.85,1.98-3.13,1.77-2.9,2.75-4.15,3.2-4.05.35.1.85-.38,2.1-2.08.9-1.2,1.63-2.4,1.63-2.67,0-1.2,3.47-3.63,6.72-4.7,1.75-.57,5.03-.4,7.07.38,1.58.57,1.88.85,1.5,1.33-.2.22,0,.52.65,1.08.5.43,1.15.9,1.42,1.02,1.42.77,4.95,5.6,8.6,11.82,1.02,1.73,3.17,5.32,4.78,8,36.17,60.38,39.5,65.9,40.5,67.38.38.55,2.15,3.42,3.92,6.38,4.32,7.18,6.82,11.1,11.98,18.92,2.38,3.6,5.2,8.05,6.25,9.88,3.33,5.75,4.8,8.4,4.9,8.85.08.4.1.4.47.05.38-.38.45-.32.93.75,2.53,5.7,4.93,13.07,5.93,18.3,2.67,14.1,2.3,25.6-1.3,40.25-.85,3.42-3.75,11.43-5.68,15.63-2.13,4.63-8.2,14.02-11.6,18-4.5,5.22-13.65,13.88-14.5,13.68-.2-.05-.28.03-.17.17.08.15-.03.28-.25.28s-.32.13-.25.25c.08.15-.13.25-.47.25-.65,0-1.35.4-6.07,3.38-7,4.38-10.6,6.4-13.95,7.8s-8.68,3.42-10.38,3.95c-3.83,1.15-7.4,2.6-6.63,2.65.15,0-.75.28-2,.63-2.78.75-7,.88-11.75.38-3.45-.35-6.43-.25-10.6.38-2.22.32-4.6.43-5.15.22v.04Z"/>
    </g>
  </g>
</svg>