<?xml version="1.0" encoding="UTF-8"?>
<svg id="Layer_2" data-name="Layer 2" xmlns="http://www.w3.org/2000/svg" viewBox="0 0 1441.02 736.57">
  <defs>
    <style>
      .cls-1 {
        fill: #fff;
      }
    </style>
  </defs>
  <g id="Layer_1-2" data-name="Layer 1">
    <path class="cls-1" d="M789.37,284.32l-75.44,102.86-75.44-102.86h-30.28s-.07,46.72-.07,67.21v71.13s6.42,0,6.42,0c0,0,17.87,0,26.81,0,0-30.89,0-81.2,0-81.2,0,0,39.89,51.23,59.2,80.84h26.72c19.3-29.61,59.2-80.84,59.2-80.84,0,0,0,50.31,0,81.2,8.93,0,26.81,0,26.81,0h6.41s0-6.26,0-6.26v-64.87c0-20.49-.07-67.21-.07-67.21h-30.28ZM554.65,284.32c0,29.03,0,67.6,0,96.63,0,12.29-2.46,14.75-14.82,14.75-32,0-67.95,0-99.96-.01-1.93,0-3.88-.08-5.79-.31-5.53-.65-8.34-3.59-8.76-9.12-.11-1.47-.06-2.96-.06-4.44,0-29.32,0-68.18,0-97.51h-33.11c0,30.4,0,70.34.01,100.74,0,2.61.12,5.24.33,7.85,1.19,15.03,9.93,25.25,24.62,28.38,4.3.92,8.79,1.29,13.2,1.32,19.13.14,38.27.06,57.4.06,19.13,0,42.22.04,61.35-.03,3.63-.01,7.3-.19,10.88-.75,13.17-2.04,22.58-8.8,26.13-22.13,1.04-3.91,1.59-8.08,1.61-12.13.12-31.26.09-72.06.07-103.32h-33.09ZM238.64,395.71s0-79.24,0-111.39h-33.1c0,41.1,0,92.41,0,133.51,0,2,0,4.84,0,4.84,0,0,21.44.01,29.63.01,45.8,0,98.41,0,144.21,0v-26.96c-43.05,0-140.73,0-140.73,0ZM1013.82,285.47c-4.31-1.24-8.96-1.7-13.46-1.74-19.82-.18-43.05-.08-62.86-.08s-39.41-.06-59.11.05c-3.84.02-7.78.26-11.5,1.15-15.67,3.73-24.94,15.9-25.17,33.75-.3,23.21-.11,46.44-.06,69.66.02,7.42,1.63,14.5,5.91,20.69,7.26,10.52,17.75,14.32,30.09,14.31,39.86-.03,83.13-.01,123-.02,1.37,0,2.73-.04,4.1-.1,17.99-.85,31.57-13.95,31.87-31.93.43-25.15.35-50.31.02-75.46-.19-14.54-9.38-26.43-22.83-30.29ZM947.36,400.41c-2.39.53-5.12.24-7.55.56-17.3-.26-31.41-14.98-32.83-31.68-.54-6.41.94-12.4,4.25-17.91,7.56-12.62,23.8-41.89,24.46-42.8,2.78-3.89,5.53-3.93,8.25-.04,1.35,1.95,16.59,30.52,23.64,41.31,13.14,20.1.88,45.88-20.2,50.56ZM1204.48,380.46l-119.42-96.14h-31.87v138.26h31.87v-96.83c29.11,23.41,119.42,96.83,119.42,96.83h31.87v-138.26h-31.87v96.14ZM1225.57,104.69C1095.55,39.76,924.64,2.9,742.27.18c-.45,0-.9-.03-1.36-.04-2.26-.09-4.53-.15-6.8-.15-.76,0-1.52.03-2.28.04-1.58-.01-3.16-.04-4.75-.04-.9,0-1.8.02-2.7.02-1.3,0-2.59-.02-3.89-.02-190.51,0-369.87,37.18-505.06,104.69C76.51,174.07,0,267.68,0,368.29s76.51,194.22,215.44,263.6c135.19,67.51,314.56,104.69,505.06,104.69,1.3,0,2.59-.02,3.89-.02.9,0,1.8.02,2.7.02,1.59,0,3.17-.03,4.75-.04.76,0,1.52.04,2.28.04,2.27,0,4.54-.05,6.8-.15.45,0,.9-.03,1.36-.04,182.37-2.72,353.27-39.58,483.3-104.51,138.93-69.38,215.44-162.99,215.44-263.6s-76.51-194.22-215.44-263.6ZM1237.14,129.82h-125.64c-9.52-8.18-19.54-16.1-30.1-23.71-41.44-29.89-88.79-53.91-140.11-71.49,114.44,18.87,215.86,52.01,295.85,95.21ZM1084.74,129.82h-163.71c-3.7-6.55-7.5-12.99-11.52-19.19-25.34-39.06-55.48-68.48-88.53-87.14,103.35,14.56,195,52.69,263.76,106.33ZM730.79,17.01c3.29.02,6.58.04,9.86.09,63.55,2.75,120.58,45.61,160.85,112.73h-334.75c40.94-68.24,99.21-111.38,164.04-112.81ZM558.73,110.63c-4.02,6.2-7.82,12.64-11.52,19.19h-177.76c72.79-56.78,171.23-96.2,282.05-108.66-34.71,18.49-66.35,48.75-92.77,89.47ZM524.48,30.78c-55.79,17.85-107.16,43.2-151.69,75.33-10.56,7.61-20.57,15.53-30.1,23.71h-138.82c85.71-46.29,196.03-81.03,320.61-99.04ZM180.81,593.66h147.34c13.68,12.91,28.55,25.2,44.64,36.8,44.53,32.13,95.9,57.47,151.69,75.33-136.05-19.67-255.11-59.31-343.67-112.13ZM353.52,593.66h186.58c5.76,11.22,11.97,22,18.64,32.28,26.42,40.72,58.05,70.98,92.76,89.47-119.14-13.39-223.96-57.96-297.98-121.75ZM740.65,719.48c-3.28.05-6.58.06-9.87.09-68.87-1.53-130.32-50.16-171.46-125.9h349.62c-40.51,74.58-100.7,122.88-168.29,125.81ZM909.51,625.95c6.67-10.28,12.89-21.06,18.64-32.28h172.49c-70.22,60.49-168.11,103.7-279.67,119.42,33.05-18.66,63.19-48.08,88.53-87.14ZM941.29,701.96c51.33-17.58,98.68-41.6,140.11-71.49,16.09-11.6,30.96-23.9,44.64-36.8h134.16c-83.15,49.59-193.17,87.56-318.91,108.29ZM1292.88,572.6h-146.11c16.94-18.57,31.57-38.26,43.72-58.99,6.22-10.6,11.69-21.37,16.49-32.26h-18.62c-15.49,32.88-37.55,63.56-65.04,91.25h-185.16c12.51-28.32,22.3-58.99,29.14-91.25h-17.32c-7.25,32.89-17.59,63.56-30.46,91.25h-370.79c-12.87-27.7-23.22-58.36-30.47-91.25h-17.32c6.85,32.27,16.64,62.94,29.14,91.25h-199.15c-27.5-27.7-49.6-58.36-65.09-91.25h-18.63c4.8,10.9,10.27,21.66,16.49,32.26,12.15,20.72,26.78,40.42,43.72,58.99h-159.29c-82.56-57.57-131.19-128.1-131.19-204.32,0-82.09,56.38-157.59,150.85-217.4h152.14c-22.35,22.32-41.18,46.41-56.23,72.07-2.03,3.47-3.96,6.96-5.85,10.46h19.4c17.19-29.8,39.89-57.54,67.22-82.53h191.64c-12.41,25.57-22.45,53.3-30.05,82.53h17.57c8.05-29.8,18.64-57.55,31.42-82.53h358.13c12.78,24.98,23.38,52.73,31.42,82.53h17.57c-7.59-29.23-17.64-56.96-30.05-82.53h177.59c27.32,24.99,50.02,52.73,67.22,82.53h19.4c-1.88-3.5-3.81-6.99-5.85-10.46-15.05-25.66-33.88-49.75-56.23-72.07h138.96c94.47,59.81,150.85,135.32,150.85,217.4,0,76.22-48.62,146.75-131.19,204.32Z"/>
  </g>
</svg>